<svg width="32" height="32" viewBox="0 0 32 32" fill="none" xmlns="http://www.w3.org/2000/svg">
  <defs>
    <linearGradient id="goldGradient" x1="0%" y1="0%" x2="100%" y2="100%">
      <stop offset="0%" style="stop-color:#fbbf24;stop-opacity:1" />
      <stop offset="50%" style="stop-color:#f59e0b;stop-opacity:1" />
      <stop offset="100%" style="stop-color:#d97706;stop-opacity:1" />
    </linearGradient>
  </defs>
  
  <!-- Dark background for favicon -->
  <rect width="32" height="32" rx="6" fill="#18181b"/>
  
  <!-- Outer circle -->
  <circle cx="16" cy="16" r="13" fill="none" stroke="url(#goldGradient)" stroke-width="1.5"/>
  
  <!-- Five-petaled flower (sacred geometry) -->
  <g transform="translate(16,16)">
    <!-- Top petal -->
    <path d="M 0,-8 Q -3.5,-5 0,-1.5 Q 3.5,-5 0,-8 Z" fill="none" stroke="url(#goldGradient)" stroke-width="1"/>
    
    <!-- Top-right petal -->
    <path d="M 5.7,-5.7 Q 5,0 1.5,0 Q 5,-5 5.7,-5.7 Z" fill="none" stroke="url(#goldGradient)" stroke-width="1" transform="rotate(72)"/>
    
    <!-- Bottom-right petal -->
    <path d="M 5.7,5.7 Q 0,5 0,1.5 Q 5,5 5.7,5.7 Z" fill="none" stroke="url(#goldGradient)" stroke-width="1" transform="rotate(144)"/>
    
    <!-- Bottom-left petal -->
    <path d="M -5.7,5.7 Q -5,0 -1.5,0 Q -5,5 -5.7,5.7 Z" fill="none" stroke="url(#goldGradient)" stroke-width="1" transform="rotate(216)"/>
    
    <!-- Top-left petal -->
    <path d="M -5.7,-5.7 Q 0,-5 0,-1.5 Q -5,-5 -5.7,-5.7 Z" fill="none" stroke="url(#goldGradient)" stroke-width="1" transform="rotate(288)"/>
    
    <!-- Center pentagram -->
    <path d="M 0,-3 L 3,1 L -2,-1 L 2,-1 L -3,1 Z" fill="none" stroke="url(#goldGradient)" stroke-width="0.8"/>
  </g>
</svg>
